<mxfile host="drawio-plugin" modified="2023-02-02T20:56:58.684Z" agent="5.0 (X11; Linux x86_64) AppleWebKit/537.36 (KHTML, like Gecko) Chrome/104.0.5112.102 Safari/537.36" etag="5nIqHr9aHkwEE0p4WWRw" version="20.5.3" type="embed"><diagram name="Page-1" id="oBorpOqPXida0Boxa0tn"><mxGraphModel dx="1870" dy="762" grid="1" gridSize="10" guides="1" tooltips="1" connect="1" arrows="1" fold="1" page="1" pageScale="1" pageWidth="850" pageHeight="1100" math="0" shadow="0"><root><mxCell id="0"/><mxCell id="1" parent="0"/><mxCell id="q00nxQbJWBcTZr3gt5vw-1" value="&lt;b style=&quot;font-size: 16px;&quot;&gt;page&lt;/b&gt;" style="rounded=0;whiteSpace=wrap;html=1;fontSize=16;" parent="1" vertex="1"><mxGeometry x="40" y="200" width="200" height="40" as="geometry"/></mxCell><mxCell id="q00nxQbJWBcTZr3gt5vw-6" value="" style="group" parent="1" connectable="0" vertex="1"><mxGeometry x="40" y="240" width="200" height="40" as="geometry"/></mxCell><mxCell id="q00nxQbJWBcTZr3gt5vw-2" value="&lt;b&gt;string&lt;/b&gt;" style="rounded=0;whiteSpace=wrap;html=1;" parent="q00nxQbJWBcTZr3gt5vw-6" vertex="1"><mxGeometry width="80" height="40" as="geometry"/></mxCell><mxCell id="q00nxQbJWBcTZr3gt5vw-3" value="&lt;b&gt;id&lt;/b&gt;" style="rounded=0;whiteSpace=wrap;html=1;" parent="q00nxQbJWBcTZr3gt5vw-6" vertex="1"><mxGeometry x="80" width="120" height="40" as="geometry"/></mxCell><mxCell id="q00nxQbJWBcTZr3gt5vw-7" value="" style="group" parent="1" connectable="0" vertex="1"><mxGeometry x="40" y="280" width="200" height="40" as="geometry"/></mxCell><mxCell id="q00nxQbJWBcTZr3gt5vw-4" value="string" style="rounded=0;whiteSpace=wrap;html=1;" parent="q00nxQbJWBcTZr3gt5vw-7" vertex="1"><mxGeometry width="80" height="40" as="geometry"/></mxCell><mxCell id="q00nxQbJWBcTZr3gt5vw-5" value="path" style="rounded=0;whiteSpace=wrap;html=1;" parent="q00nxQbJWBcTZr3gt5vw-7" vertex="1"><mxGeometry x="80" width="120" height="40" as="geometry"/></mxCell><mxCell id="q00nxQbJWBcTZr3gt5vw-8" value="" style="group" parent="1" connectable="0" vertex="1"><mxGeometry x="40" y="360" width="200" height="40" as="geometry"/></mxCell><mxCell id="q00nxQbJWBcTZr3gt5vw-9" value="string" style="rounded=0;whiteSpace=wrap;html=1;" parent="q00nxQbJWBcTZr3gt5vw-8" vertex="1"><mxGeometry width="80" height="40" as="geometry"/></mxCell><mxCell id="q00nxQbJWBcTZr3gt5vw-10" value="name" style="rounded=0;whiteSpace=wrap;html=1;" parent="q00nxQbJWBcTZr3gt5vw-8" vertex="1"><mxGeometry x="80" width="120" height="40" as="geometry"/></mxCell><mxCell id="U49gReD8Onm2mdh760gp-1" value="" style="group" parent="1" connectable="0" vertex="1"><mxGeometry x="40" y="320" width="200" height="40" as="geometry"/></mxCell><mxCell id="U49gReD8Onm2mdh760gp-2" value="string" style="rounded=0;whiteSpace=wrap;html=1;" parent="U49gReD8Onm2mdh760gp-1" vertex="1"><mxGeometry width="80" height="40" as="geometry"/></mxCell><mxCell id="U49gReD8Onm2mdh760gp-3" value="alias" style="rounded=0;whiteSpace=wrap;html=1;" parent="U49gReD8Onm2mdh760gp-1" vertex="1"><mxGeometry x="80" width="120" height="40" as="geometry"/></mxCell><mxCell id="U49gReD8Onm2mdh760gp-4" value="" style="group" parent="1" connectable="0" vertex="1"><mxGeometry x="40" y="400" width="200" height="40" as="geometry"/></mxCell><mxCell id="U49gReD8Onm2mdh760gp-5" value="string" style="rounded=0;whiteSpace=wrap;html=1;" parent="U49gReD8Onm2mdh760gp-4" vertex="1"><mxGeometry width="80" height="40" as="geometry"/></mxCell><mxCell id="U49gReD8Onm2mdh760gp-6" value="status" style="rounded=0;whiteSpace=wrap;html=1;" parent="U49gReD8Onm2mdh760gp-4" vertex="1"><mxGeometry x="80" width="120" height="40" as="geometry"/></mxCell><mxCell id="U49gReD8Onm2mdh760gp-7" value="" style="group" parent="1" connectable="0" vertex="1"><mxGeometry x="40" y="440" width="200" height="40" as="geometry"/></mxCell><mxCell id="U49gReD8Onm2mdh760gp-8" value="string" style="rounded=0;whiteSpace=wrap;html=1;" parent="U49gReD8Onm2mdh760gp-7" vertex="1"><mxGeometry width="80" height="40" as="geometry"/></mxCell><mxCell id="U49gReD8Onm2mdh760gp-9" value="title" style="rounded=0;whiteSpace=wrap;html=1;" parent="U49gReD8Onm2mdh760gp-7" vertex="1"><mxGeometry x="80" width="120" height="40" as="geometry"/></mxCell><mxCell id="U49gReD8Onm2mdh760gp-10" value="" style="group" parent="1" connectable="0" vertex="1"><mxGeometry x="40" y="480" width="200" height="40" as="geometry"/></mxCell><mxCell id="U49gReD8Onm2mdh760gp-11" value="string" style="rounded=0;whiteSpace=wrap;html=1;" parent="U49gReD8Onm2mdh760gp-10" vertex="1"><mxGeometry width="80" height="40" as="geometry"/></mxCell><mxCell id="U49gReD8Onm2mdh760gp-12" value="description" style="rounded=0;whiteSpace=wrap;html=1;" parent="U49gReD8Onm2mdh760gp-10" vertex="1"><mxGeometry x="80" width="120" height="40" as="geometry"/></mxCell><mxCell id="U49gReD8Onm2mdh760gp-13" value="" style="group" parent="1" connectable="0" vertex="1"><mxGeometry x="40" y="520" width="200" height="40" as="geometry"/></mxCell><mxCell id="U49gReD8Onm2mdh760gp-14" value="JSON" style="rounded=0;whiteSpace=wrap;html=1;" parent="U49gReD8Onm2mdh760gp-13" vertex="1"><mxGeometry width="80" height="40" as="geometry"/></mxCell><mxCell id="U49gReD8Onm2mdh760gp-15" value="value" style="rounded=0;whiteSpace=wrap;html=1;" parent="U49gReD8Onm2mdh760gp-13" vertex="1"><mxGeometry x="80" width="120" height="40" as="geometry"/></mxCell><mxCell id="U49gReD8Onm2mdh760gp-41" value="&lt;b style=&quot;font-size: 16px;&quot;&gt;settings&lt;/b&gt;" style="rounded=0;whiteSpace=wrap;html=1;fontSize=16;" parent="1" vertex="1"><mxGeometry x="-200" y="200" width="200" height="40" as="geometry"/></mxCell><mxCell id="U49gReD8Onm2mdh760gp-42" value="" style="group" parent="1" connectable="0" vertex="1"><mxGeometry x="-200" y="240" width="200" height="40" as="geometry"/></mxCell><mxCell id="U49gReD8Onm2mdh760gp-43" value="&lt;b&gt;json&lt;/b&gt;" style="rounded=0;whiteSpace=wrap;html=1;" parent="U49gReD8Onm2mdh760gp-42" vertex="1"><mxGeometry width="80" height="40" as="geometry"/></mxCell><mxCell id="U49gReD8Onm2mdh760gp-44" value="&lt;b&gt;key&lt;/b&gt;" style="rounded=0;whiteSpace=wrap;html=1;" parent="U49gReD8Onm2mdh760gp-42" vertex="1"><mxGeometry x="80" width="120" height="40" as="geometry"/></mxCell><mxCell id="3" style="edgeStyle=orthogonalEdgeStyle;rounded=0;orthogonalLoop=1;jettySize=auto;html=1;exitX=0;exitY=0;exitDx=15;exitDy=15;exitPerimeter=0;entryX=0.25;entryY=1;entryDx=0;entryDy=0;" edge="1" parent="1" source="2" target="U49gReD8Onm2mdh760gp-44"><mxGeometry relative="1" as="geometry"/></mxCell><mxCell id="2" value="np:&lt;br&gt;&quot;layout&quot;: {&lt;br&gt;alias: &quot;default&quot;&lt;br&gt;}" style="shape=card;whiteSpace=wrap;html=1;" vertex="1" parent="1"><mxGeometry x="-105" y="320" width="80" height="100" as="geometry"/></mxCell></root></mxGraphModel></diagram></mxfile>